<?xml version="1.0" encoding="UTF-8" standalone="no"?>
<!-- Created with Inkscape (http://www.inkscape.org/) -->

<svg
   width="200.31232mm"
   height="279.66235mm"
   viewBox="0 0 200.31232 279.66235"
   version="1.1"
   id="svg5"
   xmlns="http://www.w3.org/2000/svg"
   xmlns:svg="http://www.w3.org/2000/svg">
  <defs
     id="defs2" />
  <g
     id="layer1"
     transform="translate(-3.2484391,-2.8124576)">
    <rect
       style="fill:#000000;stroke-width:0.1"
       id="rect176"
       width="123.51452"
       height="107.17331"
       x="3.2484391"
       y="2.8124576"
       ry="19.506882" />
    <path
       style="fill:#000000;stroke-width:0.1"
       id="path230"
       d="M 110.66412,188.58819 90.530975,184.7367 75.944421,199.13844 73.38592,178.8005 l -18.204359,-9.42225 18.551906,-8.71805 3.335641,-20.22501 14.024211,14.94988 20.265901,-3.07749 -9.88447,17.95759 z"
       transform="translate(68.990132,16.65009)" />
    <path
       style="fill:none;fill-rule:evenodd;stroke:#000000;stroke-width:0.264583"
       id="path455"
       d="m 39.647785,210.07253 c 1.703036,1.44754 -1.11104,3.00982 -2.40591,2.83055 -3.509018,-0.4858 -4.421178,-4.85598 -3.255204,-7.64238 2.085653,-4.9842 8.46355,-6.06549 12.878845,-3.67985 6.479623,3.50104 7.753709,12.11831 4.104498,18.11532 -4.863824,7.99306 -15.789581,9.46033 -23.35178,4.52914 -9.516257,-6.20539 -11.176418,-19.46867 -4.953792,-28.58825 7.536433,-11.04502 23.152163,-12.89797 33.824715,-5.37844 12.577234,8.86152 14.622962,26.83839 5.803086,39.06119 -10.182896,14.1117 -30.526438,16.35024 -44.297651,6.22773 -15.6477265,-11.50184 -18.07911881,-34.21577 -6.652379,-49.53412 12.819075,-17.18487 37.906043,-19.80916 54.770586,-7.07702 18.722838,14.13508 21.540077,41.59702 7.501673,60.00705" />
    <path
       id="rect176-3"
       style="fill:#ff2a2a;stroke-width:0.0578061"
       d="m 107.67767,222.57763 c -6.01523,-0.53438 -10.900631,4.86171 -10.900631,10.90063 v 38.08811 c 0,6.03891 4.861711,10.90063 10.900631,10.90063 h 52.0578 c 7.05648,0.17916 11.36768,-2.69956 10.90063,-10.90063 v -1.46916 c 10.62525,-3.09663 17.41966,-9.75545 17.42684,-17.07906 -0.001,-7.32716 2.24058,-10.8199 -8.38981,-13.91803 -5.20069,-1.51569 -5.46605,-3.72823 -9.03703,-5.62186 l -12.0231,-6.37565 c -9.53335,-5.05538 -50.93533,-4.52498 -50.93533,-4.52498 z" />
    <path
       id="rect176-7"
       style="fill:#000000;stroke-width:0.0518307"
       d="m 149.65291,30.890621 c -5.60125,0 -10.11052,4.509278 -10.11052,10.110516 v 35.327611 c 0,5.601242 4.50927,10.110516 10.11052,10.110516 h 43.79732 c 5.60124,0 10.11052,-4.509274 10.11052,-10.110516 V 41.001137 c 0,-5.601238 -4.50928,-10.110516 -10.11052,-10.110516 z m 16.94344,11.839439 7.26871,7.748681 10.50397,-1.595001 -5.12302,9.307524 4.76278,9.496891 -10.43515,-1.996231 -7.56039,7.464501 -1.32608,-10.541207 -9.43529,-4.883572 9.61555,-4.518769 z" />
  </g>
</svg>
